<svg xmlns="http://www.w3.org/2000/svg" xmlns:xlink="http://www.w3.org/1999/xlink" version="1.1" width="256" height="256" viewBox="0 0 256 256" xml:space="preserve">

<defs>
</defs>
<g style="stroke: none; stroke-width: 0; stroke-dasharray: none; stroke-linecap: butt; stroke-linejoin: miter; stroke-miterlimit: 10; fill: none; fill-rule: nonzero; opacity: 1;" transform="translate(1.4065934065934016 1.4065934065934016) scale(2.81 2.81)" >
	<path d="M 23.938 89.45 l 2.542 -2.542 c 0.68 -0.68 0.68 -1.782 0 -2.462 l -2.278 -2.278 c -1.014 -1.014 -1.014 -2.658 0 -3.672 l 3.317 -3.317 c 1.014 -1.014 2.658 -1.014 3.672 0 l 2.278 2.278 c 0.68 0.68 1.782 0.68 2.462 0 l 2.542 -2.542 c 0.733 -0.733 0.733 -1.921 0 -2.654 l -8.609 -8.609 c -7.143 4.294 -12.845 10.051 -17.189 17.189 l 8.609 8.609 C 22.017 90.183 23.205 90.183 23.938 89.45 z" style="stroke: none; stroke-width: 1; stroke-dasharray: none; stroke-linecap: butt; stroke-linejoin: miter; stroke-miterlimit: 10; fill: rgb(226,183,0); fill-rule: nonzero; opacity: 1;" transform=" matrix(1 0 0 1 0 0) " stroke-linecap="round" />
	<path d="M 82.891 18.358 L 68.802 4.269 c -5.692 -5.692 -14.92 -5.692 -20.612 0 l -5.274 5.274 c -5.692 5.692 -5.692 14.92 0 20.612 l 3.866 3.866 L 3.39 77.413 c -0.733 0.733 -0.733 1.921 0 2.654 l 3.703 3.703 c 0.733 0.733 1.921 0.733 2.654 0 L 53.14 40.377 l 3.866 3.866 c 5.692 5.692 14.92 5.692 20.612 0 l 5.274 -5.274 C 88.583 33.278 88.583 24.05 82.891 18.358 z M 76.63 34.264 l -3.718 3.718 c -3.093 3.093 -8.107 3.093 -11.2 0 L 49.177 25.448 c -3.093 -3.093 -3.093 -8.107 0 -11.2 l 3.718 -3.718 c 3.093 -3.093 8.107 -3.093 11.2 0 L 76.63 23.064 C 79.723 26.157 79.723 31.171 76.63 34.264 z" style="stroke: none; stroke-width: 1; stroke-dasharray: none; stroke-linecap: butt; stroke-linejoin: miter; stroke-miterlimit: 10; fill: rgb(252,204,0); fill-rule: nonzero; opacity: 1;" transform=" matrix(1 0 0 1 0 0) " stroke-linecap="round" />
	<path d="M 20.018 28.114 c -0.943 3.116 -3.401 5.574 -6.517 6.517 c -0.424 0.128 -0.424 0.707 0 0.836 c 3.116 0.943 5.574 3.401 6.517 6.517 c 0.128 0.424 0.707 0.424 0.836 0 c 0.943 -3.116 3.401 -5.574 6.517 -6.517 c 0.424 -0.128 0.424 -0.707 0 -0.836 c -3.116 -0.943 -5.574 -3.401 -6.517 -6.517 C 20.726 27.69 20.146 27.69 20.018 28.114 z" style="stroke: none; stroke-width: 1; stroke-dasharray: none; stroke-linecap: butt; stroke-linejoin: miter; stroke-miterlimit: 10; fill: rgb(252,204,0); fill-rule: nonzero; opacity: 1;" transform=" matrix(1 0 0 1 0 0) " stroke-linecap="round" />
	<path d="M 55.258 63.536 c -0.694 2.293 -2.503 4.102 -4.797 4.797 c -0.312 0.094 -0.312 0.521 0 0.615 c 2.293 0.694 4.102 2.503 4.797 4.797 c 0.094 0.312 0.521 0.312 0.615 0 c 0.694 -2.293 2.503 -4.102 4.797 -4.797 c 0.312 -0.094 0.312 -0.521 0 -0.615 c -2.293 -0.694 -4.102 -2.503 -4.797 -4.797 C 55.779 63.224 55.353 63.224 55.258 63.536 z" style="stroke: none; stroke-width: 1; stroke-dasharray: none; stroke-linecap: butt; stroke-linejoin: miter; stroke-miterlimit: 10; fill: rgb(252,204,0); fill-rule: nonzero; opacity: 1;" transform=" matrix(1 0 0 1 0 0) " stroke-linecap="round" />
	<path d="M 76.97 56.998 c -0.563 1.86 -2.03 3.327 -3.89 3.89 c -0.253 0.077 -0.253 0.422 0 0.499 c 1.86 0.563 3.327 2.03 3.89 3.89 c 0.077 0.253 0.422 0.253 0.499 0 c 0.563 -1.86 2.03 -3.327 3.89 -3.89 c 0.253 -0.077 0.253 -0.422 0 -0.499 c -1.86 -0.563 -3.327 -2.03 -3.89 -3.89 C 77.392 56.745 77.046 56.745 76.97 56.998 z" style="stroke: none; stroke-width: 1; stroke-dasharray: none; stroke-linecap: butt; stroke-linejoin: miter; stroke-miterlimit: 10; fill: rgb(252,204,0); fill-rule: nonzero; opacity: 1;" transform=" matrix(1 0 0 1 0 0) " stroke-linecap="round" />
	<path d="M 24.898 6.41 c -0.594 1.961 -2.14 3.508 -4.101 4.101 c -0.267 0.081 -0.267 0.445 0 0.526 c 1.961 0.594 3.508 2.14 4.101 4.101 c 0.081 0.267 0.445 0.267 0.526 0 c 0.594 -1.961 2.14 -3.508 4.101 -4.101 c 0.267 -0.081 0.267 -0.445 0 -0.526 c -1.961 -0.594 -3.508 -2.14 -4.101 -4.101 C 25.343 6.143 24.978 6.143 24.898 6.41 z" style="stroke: none; stroke-width: 1; stroke-dasharray: none; stroke-linecap: butt; stroke-linejoin: miter; stroke-miterlimit: 10; fill: rgb(252,204,0); fill-rule: nonzero; opacity: 1;" transform=" matrix(1 0 0 1 0 0) " stroke-linecap="round" />
</g>
</svg>