<svg xmlns="http://www.w3.org/2000/svg" xmlns:xlink="http://www.w3.org/1999/xlink" version="1.1" width="256" height="256" viewBox="0 0 256 256" xml:space="preserve">

<defs>
</defs>
<g style="stroke: none; stroke-width: 0; stroke-dasharray: none; stroke-linecap: butt; stroke-linejoin: miter; stroke-miterlimit: 10; fill: none; fill-rule: nonzero; opacity: 1;" transform="translate(1.4065934065934016 1.4065934065934016) scale(2.81 2.81)" >
	<path d="M 54.98 0 H 17.086 c -3.925 0 -7.118 3.193 -7.118 7.118 v 75.764 c 0 3.925 3.193 7.118 7.118 7.118 H 54.98 c 3.925 0 7.118 -3.193 7.118 -7.118 v -14.69 c 0 -0.553 -0.447 -1 -1 -1 s -1 0.447 -1 1 v 7.896 h -48.13 v -63.67 h 48.13 V 21.1 c 0 0.552 0.447 1 1 1 s 1 -0.448 1 -1 V 7.118 C 62.099 3.193 58.905 0 54.98 0 z M 60.099 78.087 v 4.795 c 0 2.822 -2.296 5.118 -5.118 5.118 H 17.086 c -2.822 0 -5.118 -2.296 -5.118 -5.118 v -4.795 H 60.099 z M 11.968 10.417 V 7.118 C 11.968 4.296 14.264 2 17.086 2 H 54.98 c 2.822 0 5.118 2.296 5.118 5.118 v 3.299 H 11.968 z" style="stroke: none; stroke-width: 1; stroke-dasharray: none; stroke-linecap: butt; stroke-linejoin: miter; stroke-miterlimit: 10; fill: rgb(0,0,0); fill-rule: nonzero; opacity: 1;" transform=" matrix(1 0 0 1 0 0) " stroke-linecap="round" />
	<circle cx="36.03" cy="83.04" r="2" style="stroke: none; stroke-width: 1; stroke-dasharray: none; stroke-linecap: butt; stroke-linejoin: miter; stroke-miterlimit: 10; fill: rgb(0,0,0); fill-rule: nonzero; opacity: 1;" transform="  matrix(1 0 0 1 0 0) "/>
	<path d="M 38.203 7.254 H 27.147 c -0.552 0 -1 -0.448 -1 -1 s 0.448 -1 1 -1 h 11.055 c 0.552 0 1 0.448 1 1 S 38.755 7.254 38.203 7.254 z" style="stroke: none; stroke-width: 1; stroke-dasharray: none; stroke-linecap: butt; stroke-linejoin: miter; stroke-miterlimit: 10; fill: rgb(0,0,0); fill-rule: nonzero; opacity: 1;" transform=" matrix(1 0 0 1 0 0) " stroke-linecap="round" />
	<circle cx="42.92" cy="6.25" r="1.5" style="stroke: none; stroke-width: 1; stroke-dasharray: none; stroke-linecap: butt; stroke-linejoin: miter; stroke-miterlimit: 10; fill: rgb(0,0,0); fill-rule: nonzero; opacity: 1;" transform="  matrix(1 0 0 1 0 0) "/>
	<path d="M 52.396 54.456 c -0.256 0 -0.512 -0.098 -0.707 -0.293 c -0.391 -0.391 -0.391 -1.023 0 -1.414 c 4.272 -4.272 4.272 -11.225 0 -15.498 c -0.391 -0.391 -0.391 -1.023 0 -1.414 s 1.023 -0.391 1.414 0 c 5.053 5.053 5.053 13.274 0 18.326 C 52.907 54.358 52.651 54.456 52.396 54.456 z" style="stroke: none; stroke-width: 1; stroke-dasharray: none; stroke-linecap: butt; stroke-linejoin: miter; stroke-miterlimit: 10; fill: rgb(0,0,0); fill-rule: nonzero; opacity: 1;" transform=" matrix(1 0 0 1 0 0) " stroke-linecap="round" />
	<path d="M 60.482 62.543 c -0.256 0 -0.512 -0.098 -0.707 -0.293 c -0.391 -0.391 -0.391 -1.023 0 -1.414 c 8.73 -8.732 8.73 -22.94 0 -31.672 c -0.391 -0.391 -0.391 -1.023 0 -1.414 s 1.023 -0.391 1.414 0 c 9.511 9.512 9.511 24.988 0 34.5 C 60.994 62.445 60.738 62.543 60.482 62.543 z" style="stroke: none; stroke-width: 1; stroke-dasharray: none; stroke-linecap: butt; stroke-linejoin: miter; stroke-miterlimit: 10; fill: rgb(0,0,0); fill-rule: nonzero; opacity: 1;" transform=" matrix(1 0 0 1 0 0) " stroke-linecap="round" />
	<path d="M 68.753 70.814 c -0.256 0 -0.512 -0.098 -0.707 -0.293 c -0.391 -0.391 -0.391 -1.023 0 -1.414 c 6.439 -6.439 9.986 -15.001 9.986 -24.107 s -3.547 -17.668 -9.986 -24.107 c -0.391 -0.391 -0.391 -1.023 0 -1.414 s 1.023 -0.391 1.414 0 C 76.277 26.296 80.032 35.359 80.032 45 S 76.277 63.704 69.46 70.521 C 69.265 70.717 69.009 70.814 68.753 70.814 z" style="stroke: none; stroke-width: 1; stroke-dasharray: none; stroke-linecap: butt; stroke-linejoin: miter; stroke-miterlimit: 10; fill: rgb(0,0,0); fill-rule: nonzero; opacity: 1;" transform=" matrix(1 0 0 1 0 0) " stroke-linecap="round" />
</g>
</svg>